<?xml version="1.0" encoding="UTF-8" standalone="no"?>
<!-- Created with Inkscape (http://www.inkscape.org/) -->

<svg
   width="148mm"
   height="31mm"
   viewBox="0 0 148 31"
   version="1.1"
   id="svg1"
   xml:space="preserve"
   inkscape:version="1.3.2 (091e20e, 2023-11-25, custom)"
   sodipodi:docname="логоЭтолонВер1.svg"
   xmlns:inkscape="http://www.inkscape.org/namespaces/inkscape"
   xmlns:sodipodi="http://sodipodi.sourceforge.net/DTD/sodipodi-0.dtd"
   xmlns="http://www.w3.org/2000/svg"
   xmlns:svg="http://www.w3.org/2000/svg"><sodipodi:namedview
     id="namedview1"
     pagecolor="#ffffff"
     bordercolor="#000000"
     borderopacity="0.25"
     inkscape:showpageshadow="2"
     inkscape:pageopacity="0.0"
     inkscape:pagecheckerboard="0"
     inkscape:deskcolor="#d1d1d1"
     inkscape:document-units="mm"
     inkscape:zoom="1"
     inkscape:cx="261"
     inkscape:cy="-23.5"
     inkscape:window-width="1280"
     inkscape:window-height="953"
     inkscape:window-x="-8"
     inkscape:window-y="-8"
     inkscape:window-maximized="1"
     inkscape:current-layer="layer1"
     showguides="true" /><defs
     id="defs1" /><g
     inkscape:label="Слой 1"
     inkscape:groupmode="layer"
     id="layer1" /><g
     inkscape:groupmode="layer"
     id="layer2"
     inkscape:label="векторное изображение"
     style="display:inline;opacity:1"><path
       id="path1"
       style="display:inline;fill:#659dbd;fill-opacity:1;stroke-width:0.273248"
       d="M 15.919029,0.5914284 A 15,15 0 0 0 0.91891027,15.591538 15,15 0 0 0 15.919029,30.591658 15,15 0 0 0 30.919147,15.591538 15,15 0 0 0 15.919029,0.5914284 Z m 0.142627,2.78226 A 12,12 0 0 1 28.06144,15.373468 12,12 0 0 1 16.061656,27.373768 12,12 0 0 1 9.0124723,25.048848 l -1.167887,1.56786 a 13.75,13.75 0 0 1 -5.483903,-9.8211 13.75,13.75 0 0 1 3.681946,-10.6282996 l 1.183907,1.11415 a 12,12 0 0 1 8.8351207,-3.90777 z" /><path
       id="circle3"
       style="display:inline;fill:#659dbd;fill-opacity:1;stroke-width:0.203587"
       d="M 109.03996,8.2395384 A 11.175944,11.175944 0 0 0 97.863897,19.415598 11.175944,11.175944 0 0 0 109.03996,30.591658 11.175944,11.175944 0 0 0 120.21602,19.415598 11.175944,11.175944 0 0 0 109.03996,8.2395384 Z m 0.10594,2.0732596 a 8.9407549,8.9407549 0 0 1 8.94106,8.94054 8.9407549,8.9407549 0 0 1 -8.94106,8.94054 8.9407549,8.9407549 0 0 1 -8.94054,-8.94054 8.9407549,8.9407549 0 0 1 8.94054,-8.94054 z" /><path
       id="rect4"
       style="fill:#659dbd;fill-opacity:1;stroke:none;stroke-width:0.291717"
       d="m 13.533127,14.350271 -0.11007,3.144514 26.101249,0.84336 v -3.148131 z m 26.491407,0.855768 v 3.148121 l 2.961059,0.0956 v -3.148131 z m 3.461287,0.111618 v 3.148131 l 10.625708,0.343131 1.255738,-3.107303 z m 12.413713,0.401009 -1.255738,3.107823 11.86801,0.383435 -1.289328,-3.189985 z m 9.869164,0.318844 1.289331,3.189985 10.221078,0.330216 1.256255,-3.107827 z m 24.796932,0.801503 1.289329,3.189984 5.8322,0.188623 a 11.409802,11.409802 0 0 1 -0.05738,-0.802019 11.409802,11.409802 0 0 1 0.271827,-2.339392 z m 29.76822,0.962215 a 11.409802,11.409802 0 0 1 0.11627,1.614372 11.409802,11.409802 0 0 1 -0.10642,1.533757 l 2.80138,0.09044 v -3.147611 z m 3.31142,0.106966 1e-5,3.148131 16.59019,0.535889 1e-5,-3.148131 z m 17.09043,0.552423 v 3.148131 l 6.52984,0.210837 0.11007,-3.144514 z" /><rect
       style="fill:#659dbd;fill-opacity:1;stroke:none;stroke-width:0.274623"
       id="rect5"
       width="2.9996696"
       height="20.359861"
       x="39.987141"
       y="10.241477" /><rect
       style="fill:#659dbd;fill-opacity:1;stroke:none;stroke-width:0.227269"
       id="rect6"
       width="2.4287925"
       height="17.22117"
       x="-10.861609"
       y="32.844093"
       transform="rotate(-90)" /><path
       id="rect7"
       style="fill:#659dbd;fill-opacity:1;stroke:none;stroke-width:0.268885"
       d="m 58.814601,8.4328067 -8.936406,22.1645373 2.128035,-2e-6 7.945771,-19.708352 7.964369,19.708351 3.232364,9e-6 -8.95656,-22.1645404 z" /><path
       id="rect9"
       style="fill:#659dbd;fill-opacity:1;stroke:none;stroke-width:0.268885"
       d="M 82.302573,8.4328045 73.346014,30.597343 h 3.23236 l 7.88996,-19.525934 7.890475,19.52594 3.23236,-1e-6 -8.95656,-22.1645399 z" /><path
       id="rect11"
       style="fill:#659dbd;fill-opacity:1;stroke:none;stroke-width:0.303007"
       d="M 123.61685,8.4328084 V 30.601478 h 2.99723 V 8.4328084 Z" /><path
       id="rect12"
       style="fill:#659dbd;fill-opacity:1;stroke:none;stroke-width:0.303035"
       d="M 137.24289,8.4328084 V 30.605518 h 2.99724 V 8.4328084 Z" /></g></svg>
