<?xml version="1.0" encoding="UTF-8" standalone="no"?>
<!-- Created with Inkscape (http://www.inkscape.org/) -->

<svg
   width="148mm"
   height="61mm"
   viewBox="0 0 148 61"
   version="1.1"
   id="svg1"
   xml:space="preserve"
   inkscape:version="1.3.2 (091e20e, 2023-11-25, custom)"
   sodipodi:docname="логоЭтолонВер2.svg"
   xmlns:inkscape="http://www.inkscape.org/namespaces/inkscape"
   xmlns:sodipodi="http://sodipodi.sourceforge.net/DTD/sodipodi-0.dtd"
   xmlns="http://www.w3.org/2000/svg"
   xmlns:svg="http://www.w3.org/2000/svg"><sodipodi:namedview
     id="namedview1"
     pagecolor="#ffffff"
     bordercolor="#000000"
     borderopacity="0.25"
     inkscape:showpageshadow="2"
     inkscape:pageopacity="0.0"
     inkscape:pagecheckerboard="0"
     inkscape:deskcolor="#d1d1d1"
     inkscape:document-units="mm"
     inkscape:zoom="0.85971265"
     inkscape:cx="337.9036"
     inkscape:cy="275.09192"
     inkscape:window-width="1280"
     inkscape:window-height="953"
     inkscape:window-x="-8"
     inkscape:window-y="-8"
     inkscape:window-maximized="1"
     inkscape:current-layer="layer1"
     showguides="true" /><defs
     id="defs1" /><g
     inkscape:label="Слой 1"
     inkscape:groupmode="layer"
     id="layer1"
     style="display:inline"><path
       style="fill:none;fill-opacity:1;stroke:#5c5c60;stroke-width:2.5;stroke-dasharray:none;stroke-opacity:1"
       id="path23"
       sodipodi:type="arc"
       sodipodi:cx="46.334797"
       sodipodi:cy="38.596817"
       sodipodi:rx="29.881748"
       sodipodi:ry="29.881496"
       sodipodi:start="3.4129783"
       sodipodi:end="5.4593185"
       sodipodi:arc-type="arc"
       d="M 17.546709,30.586585 A 29.881748,29.881496 0 0 1 38.184828,9.8482004 29.881748,29.881496 0 0 1 66.636125,16.670421"
       sodipodi:open="true" /><path
       style="display:inline;fill:none;fill-opacity:1;stroke:#5c5c60;stroke-width:3.01802;stroke-dasharray:none;stroke-opacity:1"
       id="ellipse23"
       sodipodi:type="arc"
       sodipodi:cx="99.800385"
       sodipodi:cy="47.804703"
       sodipodi:rx="46.038067"
       sodipodi:ry="45.482552"
       sodipodi:start="3.2056634"
       sodipodi:end="0.00346186"
       sodipodi:arc-type="arc"
       d="M 53.85678,44.892595 A 46.038067,45.482552 0 0 1 101.35462,2.3480775 46.038067,45.482552 0 0 1 145.83818,47.962157"
       sodipodi:open="true" /><rect
       style="fill:#5c5c60;fill-opacity:1;stroke:none;stroke-width:1.66319;stroke-dasharray:none;stroke-opacity:1"
       id="rect24"
       width="1.3452414"
       height="4.8044338"
       x="99.110931"
       y="4.6696944"
       inkscape:transform-center-y="-40.717297"
       inkscape:transform-center-x="-3.3974639e-06" /><rect
       style="fill:#5c5c60;fill-opacity:1;stroke:none;stroke-width:1.66319;stroke-dasharray:none;stroke-opacity:1"
       id="rect25"
       width="1.3452414"
       height="4.8044338"
       x="108.07964"
       y="-22.784563"
       inkscape:transform-center-y="-39.329886"
       inkscape:transform-center-x="-10.538417"
       transform="rotate(15)" /><rect
       style="fill:#5c5c60;fill-opacity:1;stroke:none;stroke-width:1.66319;stroke-dasharray:none;stroke-opacity:1"
       id="rect26"
       width="1.3452414"
       height="4.8044338"
       x="109.63708"
       y="-51.624619"
       inkscape:transform-center-y="-35.26221"
       inkscape:transform-center-x="-20.358653"
       transform="rotate(30)" /><rect
       style="fill:#5c5c60;fill-opacity:1;stroke:none;stroke-width:1.66319;stroke-dasharray:none;stroke-opacity:1"
       id="rect27"
       width="1.3452414"
       height="4.8044338"
       x="103.67709"
       y="-79.885063"
       inkscape:transform-center-y="-28.79147"
       inkscape:transform-center-x="-28.791483"
       transform="rotate(45)" /><rect
       style="fill:#5c5c60;fill-opacity:1;stroke:none;stroke-width:1.66319;stroke-dasharray:none;stroke-opacity:1"
       id="rect28"
       width="1.3452414"
       height="4.8044338"
       x="90.605827"
       y="-105.63999"
       inkscape:transform-center-y="-20.358645"
       inkscape:transform-center-x="-35.262216"
       transform="rotate(60)" /><rect
       style="fill:#5c5c60;fill-opacity:1;stroke:none;stroke-width:1.66319;stroke-dasharray:none;stroke-opacity:1"
       id="rect30"
       width="1.3452414"
       height="4.8044338"
       x="83.342133"
       y="28.867199"
       inkscape:transform-center-y="-39.329889"
       inkscape:transform-center-x="10.538408"
       transform="rotate(-15)" /><rect
       style="fill:#5c5c60;fill-opacity:1;stroke:none;stroke-width:1.66319;stroke-dasharray:none;stroke-opacity:1"
       id="rect31"
       width="1.3452414"
       height="4.8044338"
       x="61.847866"
       y="48.158928"
       inkscape:transform-center-y="-35.262218"
       inkscape:transform-center-x="20.358644"
       transform="rotate(-30)" /><rect
       style="fill:#5c5c60;fill-opacity:1;stroke:none;stroke-width:1.66319;stroke-dasharray:none;stroke-opacity:1"
       id="rect32"
       width="1.3452414"
       height="4.8044338"
       x="36.092934"
       y="61.230186"
       inkscape:transform-center-y="-28.791478"
       inkscape:transform-center-x="28.79147"
       transform="rotate(-45)" /><rect
       style="fill:#5c5c60;fill-opacity:1;stroke:none;stroke-width:1.66319;stroke-dasharray:none;stroke-opacity:1"
       id="rect33"
       width="1.3452414"
       height="4.8044338"
       x="7.8324876"
       y="67.190178"
       inkscape:transform-center-y="-20.358652"
       inkscape:transform-center-x="35.262211"
       transform="rotate(-60)" /><rect
       style="fill:#5c5c60;fill-opacity:1;stroke:none;stroke-width:1.07815;stroke-dasharray:none;stroke-opacity:1"
       id="rect35"
       width="0.87204242"
       height="3.1144373"
       x="45.927631"
       y="10.336191"
       inkscape:transform-center-y="-40.717297"
       inkscape:transform-center-x="-3.3974639e-06" /><rect
       style="fill:#5c5c60;fill-opacity:1;stroke:none;stroke-width:1.07815;stroke-dasharray:none;stroke-opacity:1"
       id="rect36"
       width="0.87204242"
       height="3.1144373"
       x="54.257519"
       y="-2.9682374"
       inkscape:transform-center-y="-39.329886"
       inkscape:transform-center-x="-10.538417"
       transform="rotate(15)" /><rect
       style="fill:#5c5c60;fill-opacity:1;stroke:none;stroke-width:1.07815;stroke-dasharray:none;stroke-opacity:1"
       id="rect37"
       width="0.87204242"
       height="3.1144373"
       x="58.86013"
       y="-17.975266"
       inkscape:transform-center-y="-35.26221"
       inkscape:transform-center-x="-20.358653"
       transform="rotate(29.999999)" /><rect
       style="fill:#5c5c60;fill-opacity:1;stroke:none;stroke-width:1.07815;stroke-dasharray:none;stroke-opacity:1"
       id="rect40"
       width="0.87204242"
       height="3.1144373"
       x="34.438145"
       y="21.031353"
       inkscape:transform-center-y="-39.329889"
       inkscape:transform-center-x="10.538408"
       transform="rotate(-15)" /><rect
       style="fill:#5c5c60;fill-opacity:1;stroke:none;stroke-width:1.07815;stroke-dasharray:none;stroke-opacity:1"
       id="rect41"
       width="0.87204242"
       height="3.1144373"
       x="20.572039"
       y="28.38838"
       inkscape:transform-center-y="-35.262218"
       inkscape:transform-center-x="20.358644"
       transform="rotate(-29.999999)" /><rect
       style="fill:#5c5c60;fill-opacity:1;stroke:none;stroke-width:1.07815;stroke-dasharray:none;stroke-opacity:1"
       id="rect42"
       width="0.87204242"
       height="3.1144373"
       x="5.274271"
       y="31.905935"
       inkscape:transform-center-y="-28.791478"
       inkscape:transform-center-x="28.79147"
       transform="rotate(-45)" /><rect
       style="fill:#5c5c60;fill-opacity:1;stroke:none;stroke-width:1.07815;stroke-dasharray:none;stroke-opacity:1"
       id="rect43"
       width="0.87204242"
       height="3.1144373"
       x="-10.412653"
       y="31.344259"
       inkscape:transform-center-y="-20.358652"
       inkscape:transform-center-x="35.262211"
       transform="rotate(-60)" /><path
       id="rect44"
       style="fill:#ff5555;fill-opacity:1;stroke:none;stroke-width:8.30122;stroke-dasharray:none;stroke-opacity:1"
       d="m 123.07187,17.814268 -19.26084,20.66954 a 11.412408,11.412408 0 0 1 5.24309,-1.30534 11.412408,11.412408 0 0 1 1.70326,0.12867 z" /><path
       id="path46"
       style="fill:#ff5555;fill-opacity:1;stroke:none;stroke-width:5.97442;stroke-dasharray:none;stroke-opacity:1"
       inkscape:transform-center-x="6.6993332"
       inkscape:transform-center-y="-9.7911271"
       d="m 31.89397,19.071558 10.430372,18.156 h 6.482808 z" /></g><g
     inkscape:groupmode="layer"
     id="layer2"
     inkscape:label="векторное изображение"
     style="display:inline;opacity:1"><path
       id="path1"
       style="display:inline;fill:#659dbd;fill-opacity:1;stroke-width:0.273248"
       d="M 15.933188,29.766518 A 15,15 0 0 0 0.93307,44.766628 15,15 0 0 0 15.933188,59.766748 15,15 0 0 0 30.933306,44.766628 15,15 0 0 0 15.933188,29.766518 Z m 0.142627,2.78226 a 12,12 0 0 1 11.999784,11.99978 12,12 0 0 1 -11.999784,12.0003 12,12 0 0 1 -7.049183,-2.32492 l -1.167887,1.56786 a 13.75,13.75 0 0 1 -5.483903,-9.8211 13.75,13.75 0 0 1 3.681946,-10.6283 l 1.183907,1.11415 a 12,12 0 0 1 8.83512,-3.90777 z" /><path
       id="circle3"
       style="display:inline;fill:#659dbd;fill-opacity:1;stroke-width:0.203587"
       d="m 109.05412,37.414628 a 11.175944,11.175944 0 0 0 -11.176064,11.17606 11.175944,11.175944 0 0 0 11.176064,11.17606 11.175944,11.175944 0 0 0 11.17606,-11.17606 11.175944,11.175944 0 0 0 -11.17606,-11.17606 z m 0.10594,2.07326 a 8.9407549,8.9407549 0 0 1 8.94106,8.94054 8.9407549,8.9407549 0 0 1 -8.94106,8.94054 8.9407549,8.9407549 0 0 1 -8.94054,-8.94054 8.9407549,8.9407549 0 0 1 8.94054,-8.94054 z" /><path
       id="rect4"
       style="fill:#659dbd;fill-opacity:1;stroke:none;stroke-width:0.291717"
       d="m 13.547287,43.525361 -0.110071,3.144514 26.101249,0.84336 v -3.148131 z m 26.491406,0.855768 v 3.148121 l 2.961059,0.0956 10e-7,-3.148131 z m 3.461287,0.111618 v 3.148131 l 10.625708,0.343131 1.255738,-3.107303 z m 12.413713,0.401009 -1.255738,3.107823 11.86801,0.383435 -1.289327,-3.189985 z m 9.869165,0.318844 1.289331,3.189985 10.221077,0.330216 1.256256,-3.107827 z m 24.796931,0.801503 1.289329,3.189984 5.832201,0.188623 a 11.409802,11.409802 47.097911 0 1 -0.05738,-0.802019 11.409802,11.409802 47.097911 0 1 0.271827,-2.339392 z M 120.348,46.976318 a 11.409802,11.409802 47.097911 0 1 0.11627,1.614372 11.409802,11.409802 47.097911 0 1 -0.10641,1.533757 l 2.80138,0.09043 v -3.147611 z m 3.31142,0.106966 1e-5,3.148131 16.5902,0.535889 v -3.148131 z m 17.09044,0.552423 v 3.148131 l 6.52983,0.210837 0.11008,-3.144515 z" /><rect
       style="fill:#659dbd;fill-opacity:1;stroke:none;stroke-width:0.274623"
       id="rect5"
       width="2.9996696"
       height="20.359861"
       x="40.001301"
       y="39.416565" /><rect
       style="fill:#659dbd;fill-opacity:1;stroke:none;stroke-width:0.227269"
       id="rect6"
       width="2.4287925"
       height="17.22117"
       x="-40.036697"
       y="32.858253"
       transform="rotate(-90)" /><path
       id="rect7"
       style="fill:#659dbd;fill-opacity:1;stroke:none;stroke-width:0.268885"
       d="m 58.82876,37.607897 -8.936405,22.164537 2.128034,-2e-6 7.945771,-19.708352 7.964369,19.708351 3.232364,9e-6 -8.95656,-22.16454 z" /><path
       id="rect9"
       style="fill:#659dbd;fill-opacity:1;stroke:none;stroke-width:0.268885"
       d="m 82.316732,37.607894 -8.956559,22.164539 h 3.23236 l 7.88996,-19.525934 7.890475,19.525939 h 3.23236 l -8.956559,-22.16454 z" /><path
       id="rect11"
       style="fill:#659dbd;fill-opacity:1;stroke:none;stroke-width:0.303007"
       d="m 123.63101,37.607898 v 22.16867 h 2.99723 v -22.16867 z" /><path
       id="rect12"
       style="fill:#659dbd;fill-opacity:1;stroke:none;stroke-width:0.303035"
       d="m 137.25705,37.607898 v 22.17271 h 2.99724 v -22.17271 z" /></g></svg>
